HIERARCHY
ROOT hip
{
	OFFSET 0.000000 0.000000 0.000000 
	CHANNELS 6 Xposition Yposition Zposition Xrotation Zrotation Yrotation
	JOINT abdomen
	{
		OFFSET 0.000000 3.402643 0.000000 
		CHANNELS 3 Xrotation Zrotation Yrotation
		JOINT chest
		{
			OFFSET 0.000000 8.438565 -0.680529 
			CHANNELS 3 Xrotation Zrotation Yrotation
			JOINT neck
			{
				OFFSET 0.000000 10.207942 -0.272212 
				CHANNELS 3 Xrotation Zrotation Yrotation
				JOINT head
				{
					OFFSET 0.000000 3.130431 0.000000 
					CHANNELS 3 Xrotation Zrotation Yrotation
					End Site
					{
						OFFSET 0.000000 3.130435 0.000000 
					}
				}
			}
			JOINT lCollar
			{
				OFFSET 3.470700 6.669187 -0.816635 
				CHANNELS 3 Yrotation Zrotation Xrotation
				JOINT lShldr
				{
					OFFSET 3.198488 0.000000 0.000000 
					CHANNELS 3 Zrotation Yrotation Xrotation
					JOINT lForeArm
					{
						OFFSET 10.139888 0.000000 0.000000 
						CHANNELS 3 Yrotation Zrotation Xrotation
						JOINT lHand
						{
							OFFSET 8.370511 0.000000 0.000000 
							CHANNELS 3 Zrotation Yrotation Xrotation
							End Site
							{
								OFFSET 4.083176 0.000000 0.000000 
							}
						}
					}
				}
			}
			JOINT rCollar
			{
				OFFSET -3.470700 6.669187 -0.816635 
				CHANNELS 3 Yrotation Zrotation Xrotation
				JOINT rShldr
				{
					OFFSET -3.198488 0.000000 0.000000 
					CHANNELS 3 Zrotation Yrotation Xrotation
					JOINT rForeArm
					{
						OFFSET -10.139888 0.000000 0.000000 
						CHANNELS 3 Yrotation Zrotation Xrotation
						JOINT rHand
						{
							OFFSET -8.370511 0.000000 0.000000 
							CHANNELS 3 Zrotation Yrotation Xrotation
							End Site
							{
								OFFSET -4.083176 0.000000 0.000000 
							}
						}
					}
				}
			}
		}
	}
	JOINT lThigh
	{
		OFFSET 5.308129 -1.633274 1.361059 
		CHANNELS 3 Xrotation Zrotation Yrotation
		JOINT lShin
		{
			OFFSET -2.041588 -20.007561 0.000000 
			CHANNELS 3 Xrotation Zrotation Yrotation
			JOINT lFoot
			{
				OFFSET 0.000000 -19.190928 -1.224953 
				CHANNELS 3 Xrotation Yrotation Zrotation
				End Site
				{
					OFFSET 0.000000 -2.449906 4.627600 
				}
			}
		}
	}
	JOINT rThigh
	{
		OFFSET -5.308129 -1.633274 1.361059 
		CHANNELS 3 Xrotation Zrotation Yrotation
		JOINT rShin
		{
			OFFSET 2.041588 -20.007561 0.000000 
			CHANNELS 3 Xrotation Zrotation Yrotation
			JOINT rFoot
			{
				OFFSET 0.000000 -19.190928 -1.224953 
				CHANNELS 3 Xrotation Yrotation Zrotation
				End Site
				{
					OFFSET 0.000000 -2.449906 4.627600 
				}
			}
		}
	}
}
MOTION
Frames: 17
Frame Time: 0.033333
-0.887554 50.070671 1.466489 0.101797 -1.625583 -4.611395 0.000000 0.000000 0.000000 -3.197588 1.240227 -0.195267 4.487006 0.644057 -2.197346 10.539960 3.705950 -2.974530 1.103893 8.926235 -2.452846 -22.176735 18.100674 -18.424316 -23.781012 0.103967 14.711282 2.699395 -2.711803 -3.555302 0.404036 -4.942439 -2.342042 8.775330 -13.683112 -11.948271 -0.329282 3.539258 16.573811 -4.061331 4.476398 -3.673209 8.886089 9.726679 9.174389 1.121096 -2.335682 7.808179 -7.617115 0.138581 -1.876035 7.065630 -8.345477 -8.345219 1.016531 1.806836 -17.978100 -3.275088 -0.176677 5.037354 
-0.991288 50.088276 1.262716 0.273622 -2.185742 -5.873794 0.000000 0.000000 0.000000 -2.612253 1.523430 0.185741 4.495505 1.102577 -2.363595 11.015716 5.671512 -3.747889 1.562454 8.106667 -1.932907 -26.255079 19.490004 -19.942860 -27.590694 1.371304 15.145020 3.777656 -2.242793 -3.599668 1.203095 -2.744370 -1.807883 9.383077 -13.620860 -11.642447 -0.271440 3.141908 20.576418 -5.368796 5.176600 -3.785094 8.884966 10.291797 9.625336 1.071486 -2.361435 8.660824 -7.433876 0.187105 -2.142089 6.216225 -7.680916 -7.635106 1.279172 1.727462 -17.465576 -2.669931 -0.124943 4.248411 
-1.141202 50.092918 1.001030 0.358043 -2.576784 -7.273166 0.000000 0.000000 0.000000 -1.902075 1.562454 0.439822 5.016707 1.551102 -2.627840 10.760621 7.701660 -4.444321 2.108827 6.868376 -1.297693 -30.269091 20.523550 -20.512190 -31.090368 1.955422 14.722696 3.633750 -1.331395 -3.576820 2.047317 -0.657936 -1.190675 10.815408 -13.436771 -10.581771 0.535230 3.289262 21.619003 -7.400147 5.514186 -3.955981 8.962905 10.818826 10.212051 1.041582 -2.490328 9.630017 -7.184865 0.148652 -2.382801 5.281203 -7.069064 -7.169904 1.580995 1.796426 -17.692999 -1.911920 -0.089702 3.401274 
-1.336854 50.080708 0.763489 0.611960 -3.126706 -8.822009 0.000000 0.000000 0.000000 -1.297387 1.835818 0.654900 5.394643 1.677593 -2.862388 11.261545 10.182156 -5.277267 2.446385 4.949611 -0.734941 -34.573135 21.537239 -20.885260 -34.914562 2.260725 12.093585 2.953237 0.026025 -3.538505 2.464669 0.303076 -0.673248 15.284934 -18.274651 -9.770568 14.510771 3.198071 22.202381 -7.738559 2.610798 -3.818462 8.980706 11.569703 10.821902 1.110385 -2.562849 10.319481 -7.138771 0.194584 -3.110481 3.689929 -6.376220 -7.070727 2.879600 2.476456 -18.754198 -1.489258 -0.052380 2.068086 
-1.639812 50.053917 0.560740 0.604360 -3.796657 -10.198475 0.000000 0.000000 0.000000 -0.520752 2.070148 0.723243 5.802664 1.969285 -3.351320 12.968166 11.806062 -5.806723 2.000128 2.677145 0.038996 -39.505939 22.579739 -21.624720 -38.675102 2.736019 9.249610 1.839226 1.277278 -3.495095 2.714449 2.314916 0.009747 18.964716 -20.371023 -9.931547 22.813328 2.901278 23.178572 -7.959701 1.604739 -3.781617 9.381458 12.527164 11.739300 1.197855 -2.660859 10.773358 -7.037098 0.238689 -3.913055 0.926990 -5.644461 -7.305061 7.358353 3.488891 -21.508326 -2.184004 -0.057354 1.754960 
-2.000296 50.059696 0.359121 0.913508 -4.163278 -11.486122 0.000000 0.000000 0.000000 0.106248 2.070231 0.508187 5.505965 2.404823 -4.456981 15.993933 12.197484 -6.134650 1.373007 -0.501933 0.654170 -43.881065 23.181522 -21.932770 -42.548538 2.793860 4.977510 1.745373 2.318816 -3.492711 2.698556 4.869251 0.537883 22.646797 -20.780720 -11.067601 28.936222 2.620728 23.950413 -7.904878 0.892582 -3.741185 9.342860 13.201289 12.159774 1.285637 -2.474032 11.714418 -6.830622 0.289826 -4.945548 -1.610707 -4.898277 -7.912230 10.388400 4.606391 -26.511744 -2.343660 -0.031761 0.650360 
-2.441749 50.045609 0.240437 1.215703 -4.333852 -12.771887 0.000000 0.000000 0.000000 0.486628 1.982405 0.234573 5.382791 2.644280 -5.444907 18.632833 12.327934 -6.376047 0.621761 -3.055673 1.036752 -49.381599 23.120434 -22.274250 -46.144062 3.038830 2.480585 2.069194 3.073656 -3.499814 2.518723 6.561942 0.864048 27.576487 -20.864834 -11.203112 33.920528 2.524225 25.676371 -8.043673 -0.155988 -3.686308 9.501588 13.779034 12.635841 1.314613 -2.374860 12.376379 -6.770901 0.308213 -5.342376 -3.120913 -4.016383 -8.472879 11.333683 5.626662 -32.137554 -2.456602 0.004157 -0.714372 
-3.022702 50.035728 0.224929 1.358537 -4.818224 -13.810253 0.000000 0.000000 0.000000 0.827628 2.148325 -0.586258 5.403770 2.697201 -6.540180 20.614353 12.326763 -6.427906 0.094642 -5.106631 1.392514 -54.325653 22.570917 -21.200933 -48.641724 2.754097 1.890238 0.019558 3.836473 -3.496067 2.292956 8.610625 1.124641 32.434048 -20.086689 -11.950233 37.337677 2.551876 29.527567 -7.114555 -0.300029 -3.662970 10.013552 14.917185 13.885747 1.431646 -2.614514 12.535629 -6.753268 0.366709 -6.170336 -3.698306 -2.955762 -9.198983 11.130680 6.981300 -38.100750 -2.356571 0.030672 -2.145575 
-3.523635 49.947235 0.190985 1.694650 -4.624742 -15.765919 0.000000 0.000000 0.000000 1.002919 2.128868 -0.341924 5.171438 2.761612 -7.146806 20.931757 11.537340 -6.976454 -0.185929 -6.208318 1.532439 -59.024158 21.267414 -18.261730 -51.089409 1.820493 4.239892 -1.292572 4.529727 -3.519370 2.364487 10.766160 1.249633 34.840546 -21.308126 -6.655605 41.650986 3.651660 27.472803 -5.376703 -1.780175 -3.558829 10.348490 15.017853 13.934923 1.587716 -2.212647 14.264138 -6.874113 0.447883 -7.663789 -4.587802 -2.273892 -9.000787 11.258531 7.123757 -40.357590 -3.356260 0.083595 -3.260666 
-4.252151 49.822422 0.297577 1.647336 -4.717724 -17.346029 0.000000 0.000000 0.000000 1.090600 2.216681 -0.586254 5.040795 2.574008 -7.741873 21.469557 10.929651 -7.250405 -0.280978 -6.612169 1.632765 -61.519337 20.082397 -11.780658 -52.827610 -0.715785 6.521527 -1.161883 5.231886 -3.548068 2.254219 11.839984 1.295542 38.872196 -21.941965 -2.369185 44.064224 4.762138 28.175520 -4.673117 -2.537456 -3.532927 11.371865 15.533936 14.695384 1.742633 -1.907249 14.890394 -7.107641 0.589934 -8.866354 -3.043425 -1.082114 -8.095917 9.315212 6.826389 -39.242207 -4.218279 0.114079 -2.832969 
-4.987906 49.734318 0.434556 1.762084 -5.043598 -19.287079 0.000000 0.000000 0.000000 1.076568 2.724362 -0.772005 4.640703 2.455734 -8.102864 22.463095 10.265954 -7.452620 -0.400195 -7.563194 1.636490 -61.453979 18.299623 -4.768732 -54.381241 -3.357524 12.563314 -5.495837 3.671057 -3.513635 2.557048 13.921460 1.185389 40.589466 -23.091373 2.794636 46.181267 5.821729 31.457361 -1.727783 -2.905421 -3.503960 12.557578 16.113232 15.530667 1.976981 -1.391490 15.426481 -7.616557 0.718082 -10.394478 -2.380189 0.146617 -7.226985 8.700629 6.502314 -38.439342 -4.678275 0.095463 -2.388659 
-5.806865 49.629169 0.557049 1.808795 -5.682456 -21.714392 0.000000 0.000000 0.000000 1.226044 3.349440 -0.576899 4.530090 2.680699 -7.703741 22.376114 9.878407 -7.453741 -0.071037 -6.606818 1.760025 -60.998173 15.219130 3.439407 -56.805119 -6.029051 20.559015 -9.636292 1.120832 -3.269469 2.921222 16.128180 1.225715 42.451817 -24.443577 6.701433 48.251076 6.567300 35.298031 1.764206 -2.329922 -3.478625 14.353267 16.952055 17.417412 2.160376 -1.427475 15.543641 -8.314738 0.869467 -11.406800 -1.596718 1.939806 -5.747272 8.555292 5.954607 -37.007832 -5.505142 0.077535 -2.232229 
-6.576283 49.591881 0.601783 2.059045 -5.433970 -23.186554 0.000000 0.000000 0.000000 0.946421 3.495410 -1.134873 4.537920 2.573348 -7.849625 22.101919 9.319643 -7.302750 -0.998863 -6.210001 1.512774 -59.843979 11.243989 11.627249 -58.697937 -8.292581 30.070095 -11.942498 -0.150662 -3.072408 2.326929 16.213495 1.003832 46.218864 -24.930201 9.705045 48.587013 7.513171 35.902878 1.976838 -3.412550 -3.512064 15.097264 17.295525 17.687851 2.492630 -0.530983 12.368942 -6.311615 0.731510 -12.226355 -1.158656 2.505095 -5.541329 8.047803 6.249481 -36.079086 -6.298845 0.131402 -2.565788 
-7.355807 49.649548 0.740905 2.174291 -5.230025 -24.238523 0.000000 0.000000 0.000000 0.681221 3.806056 -2.094308 4.386518 2.232986 -8.169996 22.837410 8.949433 -6.900136 -2.040135 -5.565983 1.324519 -59.794514 6.825478 17.688721 -61.110497 -9.566341 36.085701 -10.474110 0.357452 -3.174125 1.806724 17.230192 0.722620 49.545551 -26.481718 9.840870 49.821083 7.118637 38.640076 4.654809 -4.429822 -3.573210 9.587510 18.767523 15.707379 13.155795 1.123982 12.336951 -5.736178 0.718633 -13.870296 -0.428446 3.159513 -5.082282 7.275581 6.195566 -35.364685 -6.491288 0.148579 -3.125283 
-8.046795 49.605629 0.921804 1.802024 -4.454724 -26.845741 0.000000 0.000000 0.000000 0.580553 3.571771 -2.122931 4.629749 1.645011 -7.747097 23.284130 8.839113 -6.561594 -2.085102 -4.820897 1.224567 -60.356010 2.422683 22.391365 -63.291348 -10.282508 39.843605 -8.664775 0.690560 -3.255772 2.166451 17.647659 0.552468 52.534908 -28.519394 10.098164 50.799480 7.127041 37.498974 3.980536 -5.065219 -3.588443 3.475166 19.010445 12.829983 25.973263 2.644320 13.767516 -5.569867 0.663347 -13.653829 0.332628 2.893669 -5.174023 7.265625 6.204777 -33.298054 -7.289452 0.165830 -2.846607 
-8.717724 49.557114 1.129785 1.395428 -4.467190 -29.453798 0.000000 0.000000 0.000000 0.779007 3.834621 -2.368437 5.221476 1.434198 -7.111536 23.467525 9.119326 -6.071706 -2.090518 -3.920407 1.428131 -60.782757 -1.597048 25.662077 -65.373878 -10.527733 39.680737 -5.681428 1.501933 -3.376320 1.441682 17.014334 0.846219 55.081848 -29.124289 11.631308 51.087723 7.500763 36.597763 3.209082 -4.895000 -3.567383 -1.103868 19.178961 11.421767 35.322445 3.776631 18.418772 -3.303227 0.369277 -12.292462 1.443687 3.257225 -4.874957 7.216932 6.118750 -30.946095 -7.771166 0.194095 -2.708976 
-9.304854 49.575726 1.306691 1.297083 -3.895666 -31.781324 0.000000 0.000000 0.000000 0.793669 3.726455 -2.661419 5.486180 1.483517 -6.838186 23.251345 8.883646 -5.614345 -2.359829 -3.625528 1.457062 -60.377724 -5.357766 27.542366 -67.428299 -10.393307 37.841404 -2.350482 0.868063 -3.416760 1.337668 17.423065 0.849131 55.158581 -29.655561 13.947911 51.737247 7.974446 36.935810 2.706108 -4.161502 -3.540967 -6.113352 18.006035 9.112274 42.241512 4.828962 24.333033 0.535615 -0.024133 -10.233588 1.442545 3.164721 -4.666597 8.193351 5.953788 -28.447399 -8.506524 0.232455 -2.975995 
